<?xml version="1.0" encoding="utf-8"?>
<!-- Generator: Adobe Illustrator 18.1.1, SVG Export Plug-In . SVG Version: 6.00 Build 0)  -->
<svg version="1.1" id="Layer_1" xmlns="http://www.w3.org/2000/svg" xmlns:xlink="http://www.w3.org/1999/xlink" x="0px" y="0px"
	 viewBox="0 0 136.8 23" enable-background="new 0 0 136.8 23" xml:space="preserve">
<g>
	<g>
		<path fill="#FFFFFF" d="M74.8,2C74.9,2,75,2.1,75,2.2l0,14.9c0,0.1,0.1,0.2,0.2,0.2h7.3c0.1,0,0.2,0.1,0.2,0.2v3.1
			c0,0.1-0.1,0.2-0.2,0.2H71.4c-0.1,0-0.2-0.1-0.2-0.2l0-18.4c0-0.1,0.1-0.2,0.2-0.2H74.8z"/>
	</g>
	<g>
		<path fill="#FFFFFF" d="M89,2c0.1,0,0.2,0.1,0.2,0.2l0,14.9c0,0.1,0.1,0.2,0.2,0.2H97c0.1,0,0.2,0.1,0.1,0.2L96,20.6
			c0,0.1-0.2,0.2-0.3,0.2H85.6c-0.1,0-0.2-0.1-0.2-0.2l0-18.4c0-0.1,0.1-0.2,0.2-0.2H89z"/>
	</g>
	<g>
		<path fill="#FFFFFF" d="M98.8,20.8c-0.1,0-0.2-0.1-0.1-0.2L106,2.2c0-0.1,0.2-0.2,0.3-0.2h3.4c0.1,0,0.2,0.1,0.3,0.2l7.4,18.4
			c0,0.1,0,0.2-0.1,0.2l-3.6,0c-0.1,0-0.2-0.1-0.3-0.2l-1.2-3.2c0-0.1-0.2-0.2-0.3-0.2l-7.6-0.1c-0.1,0-0.2,0.1-0.3,0.2l-1.3,3.3
			c0,0.1-0.2,0.2-0.3,0.2H98.8z M108.2,7.2c0-0.1-0.1-0.1-0.1,0l-2.7,6.8c0,0.1,0,0.2,0.1,0.2h5.3c0.1,0,0.2-0.1,0.1-0.2L108.2,7.2z
			"/>
	</g>
	<g>
		<path fill="#FFFFFF" d="M119.9,20.8c-0.1,0-0.2-0.1-0.2-0.2l0-18.4c0-0.1,0.1-0.2,0.2-0.2h0.9c0.1,0,0.3,0.1,0.3,0.1l10.1,11.5
			c0.1,0.1,0.1,0,0.1-0.1l0-11.3c0-0.1,0.1-0.2,0.2-0.2h3.4c0.1,0,0.2,0.1,0.2,0.2l0,18.4c0,0.1-0.1,0.2-0.2,0.2h-1.4
			c-0.1,0-0.3-0.1-0.3-0.1l-9.6-11.1c-0.1-0.1-0.1,0-0.1,0.1v10.9c0,0.1-0.1,0.2-0.2,0.2H119.9z"/>
	</g>
	<g>
		<path fill="#FFFFFF" d="M2.1,20.7c-0.1,0-0.2-0.1-0.2-0.2V2.2c0-0.1,0.1-0.2,0.2-0.2h0.9c0.1,0,0.2,0.1,0.3,0.1l7.8,8.9
			c0.1,0.1,0.2,0.1,0.3,0l7.8-8.9c0.1-0.1,0.2-0.1,0.3-0.1h0.9c0.1,0,0.2,0.1,0.2,0.2v18.3c0,0.1-0.1,0.2-0.2,0.2H17
			c-0.1,0-0.2-0.1-0.2-0.2l0-10.4c0-0.1-0.1-0.1-0.1,0L11.3,16c-0.1,0.1-0.2,0.1-0.3,0L5.7,10c-0.1-0.1-0.1-0.1-0.1,0v10.4
			c0,0.1-0.1,0.2-0.2,0.2H2.1z"/>
	</g>
	<g>
		<path fill="#FFFFFF" d="M39.6,20.7c-0.1,0-0.2-0.1-0.2-0.2V2.2c0-0.1,0.1-0.2,0.2-0.2h0.9c0.1,0,0.2,0.1,0.3,0.1l7.8,8.9
			c0.1,0.1,0.2,0.1,0.3,0l7.8-8.9c0.1-0.1,0.2-0.1,0.3-0.1h0.9c0.1,0,0.2,0.1,0.2,0.2v18.3c0,0.1-0.1,0.2-0.2,0.2h-3.3
			c-0.1,0-0.2-0.1-0.2-0.2l0-10.4c0-0.1-0.1-0.1-0.1,0L48.8,16c-0.1,0.1-0.2,0.1-0.3,0L43.3,10c-0.1-0.1-0.1-0.1-0.1,0v10.4
			c0,0.1-0.1,0.2-0.2,0.2H39.6z"/>
	</g>
	<g>
		<path fill="#FFFFFF" d="M62.8,2.1c0-0.1,0.1-0.2,0.2-0.2h1.9h1.4c0.1,0,0.2,0.1,0.2,0.2v0.8v2.9v14.8c0,0.1-0.1,0.2-0.2,0.2h-3.4
			c-0.1,0-0.2-0.1-0.2-0.2V2.1z"/>
	</g>
	<g>
		<path fill="#FFFFFF" d="M24.1,17.3c-0.1,0-0.2,0.1-0.2,0.2v3c0,0.1,0.1,0.2,0.2,0.2h11.6c0.1,0,0.2-0.1,0.2-0.2v-3
			c0-0.1-0.1-0.2-0.2-0.2H24.1z"/>
	</g>
	<path fill="#FFFFFF" d="M33.2,9.3c0,0-0.2-0.2-0.3,0c-0.5,0.8-1.4,1.3-2.4,1.3c-1.6,0-2.8-1.3-2.8-2.8s1.3-2.8,2.8-2.8
		c1,0,1.9,0.5,2.4,1.3c0.1,0.2,0.3,0,0.3,0l2.1-2.4c0,0,0.1-0.2,0-0.3c0,0-0.1-0.1-0.1-0.1c-1.1-1.1-2.6-1.9-4.2-2
		c-0.2,0-0.3,0-0.5,0c-3.5,0-6.4,2.9-6.4,6.4s2.9,6.4,6.4,6.4c0.1,0,0.3,0,0.4,0c1.7-0.1,3.2-0.8,4.3-2c0,0,0.1-0.1,0.1-0.1
		c0.1-0.1,0-0.3,0-0.3L33.2,9.3z"/>
</g>
</svg>
